<svg xmlns="http://www.w3.org/2000/svg" xmlns:xlink="http://www.w3.org/1999/xlink" version="1.1" x="0px" y="0px" viewBox="0 0 512 640" enable-background="new 0 0 512 512" xml:space="preserve"><g><g><g><g><path d="M487.964,372.299c-1.897,0-3.584-1.367-3.928-3.304l-27.769-157.498c-0.383-2.175,1.07-4.248,3.241-4.631      c2.108-0.387,4.24,1.062,4.63,3.24l27.77,157.499c0.382,2.171-1.07,4.248-3.241,4.631      C488.433,372.275,488.198,372.299,487.964,372.299z"/></g></g><g><g><path d="M492.134,395.92c-1.897,0-3.584-1.358-3.928-3.303c-3.607-20.412-81.767-24.177-130.19-21.732      c-2.413,0.109-4.092-1.593-4.193-3.795c-0.117-2.202,1.586-4.076,3.787-4.186c13.549-0.688,132.463-5.67,138.469,28.323      c0.382,2.179-1.07,4.248-3.241,4.63C492.603,395.904,492.368,395.92,492.134,395.92z"/></g></g><g><g><path d="M338.361,260.646c-1.898,0-3.585-1.363-3.929-3.303c-0.382-2.176,1.07-4.249,3.241-4.632      c33.953-5.997,120.687-29.33,114.424-64.845c-0.383-2.175,1.07-4.248,3.24-4.631c2.125-0.387,4.248,1.062,4.631,3.24      c3.843,21.764-15.75,40.907-58.23,56.896c-30.455,11.459-62.354,17.156-62.675,17.211      C338.829,260.627,338.595,260.646,338.361,260.646z"/></g></g><g><g><path d="M456.025,191.17c-1.897,0-3.592-1.366-3.928-3.307c-0.383-2.175,1.07-4.248,3.24-4.631l15.759-2.772      c2.14-0.344,4.256,1.07,4.631,3.249c0.383,2.175-1.069,4.248-3.241,4.631l-15.758,2.771      C456.494,191.15,456.26,191.17,456.025,191.17z"/></g></g><g><g><path d="M507.877,393.148c-1.897,0-3.584-1.367-3.928-3.304l-36.093-204.75c-0.383-2.175,1.069-4.248,3.24-4.631      c2.14-0.387,4.248,1.062,4.631,3.241l36.093,204.75c0.383,2.171-1.07,4.248-3.24,4.631      C508.346,393.125,508.111,393.148,507.877,393.148z"/></g></g><g><g><path d="M492.134,395.92c-1.897,0-3.584-1.358-3.928-3.303c-0.383-2.179,1.07-4.248,3.241-4.631l15.742-2.771      c2.116-0.406,4.24,1.054,4.631,3.24c0.383,2.171-1.07,4.248-3.24,4.631l-15.743,2.771      C492.603,395.904,492.368,395.92,492.134,395.92z"/></g></g><g><g><path d="M279.06,384.777c-1.897,0-3.584-1.367-3.928-3.304l-19.444-110.246c-0.188-1.046,0.055-2.124,0.664-2.983      c0.601-0.874,1.53-1.468,2.577-1.647l78.745-13.885c2.116-0.397,4.24,1.062,4.631,3.241c0.383,2.175-1.07,4.248-3.241,4.631      l-74.81,13.189l18.055,102.375l74.81-13.189c2.14-0.398,4.248,1.062,4.63,3.24c0.383,2.171-1.069,4.248-3.24,4.631      l-78.745,13.885C279.528,384.754,279.294,384.777,279.06,384.777z"/></g></g><g><g><path d="M279.067,384.777c-0.273,0-0.546-0.023-0.819-0.086l-42.153-8.809c-1.601-0.328-2.834-1.609-3.115-3.218l-13.885-78.745      c-0.289-1.608,0.438-3.232,1.828-4.092l36.592-22.692c1.133-0.688,2.53-0.781,3.741-0.25c1.21,0.539,2.076,1.647,2.303,2.952      l19.444,110.246c0.234,1.312-0.202,2.64-1.155,3.561C281.098,384.379,280.099,384.777,279.067,384.777z M240.382,368.604      l33.72,7.052l-17.391-98.619l-29.276,18.164L240.382,368.604z"/></g></g><g><g><path d="M355.025,355.135c-1.898,0-3.585-1.367-3.928-3.304l-13.885-78.745c-0.383-2.171,1.07-4.248,3.24-4.631      c2.141-0.398,4.248,1.055,4.631,3.241l13.885,78.745c0.383,2.171-1.07,4.248-3.241,4.631      C355.494,355.111,355.26,355.135,355.025,355.135z"/></g></g><g><g><path d="M241.546,310.187c-1.905,0-3.592-1.367-3.928-3.304c-0.383-2.179,1.069-4.248,3.24-4.639l7.872-1.374      c2.14-0.375,4.248,1.062,4.63,3.249c0.383,2.17-1.069,4.248-3.24,4.622l-7.872,1.391      C242.014,310.163,241.78,310.187,241.546,310.187z"/></g></g><g><g><path d="M249.87,357.438c-1.905,0-3.592-1.366-3.928-3.311c-0.383-2.171,1.069-4.248,3.248-4.623l7.888-1.39      c2.139-0.359,4.24,1.077,4.622,3.248c0.383,2.179-1.069,4.248-3.248,4.639l-7.887,1.374      C250.331,357.422,250.104,357.438,249.87,357.438z"/></g></g><g><g><path d="M245.716,333.816c-1.897,0-3.584-1.367-3.928-3.304c-0.383-2.171,1.069-4.248,3.24-4.631l7.872-1.39      c2.108-0.406,4.241,1.055,4.63,3.24c0.383,2.172-1.069,4.248-3.24,4.631l-7.872,1.391      C246.185,333.793,245.95,333.816,245.716,333.816z"/></g></g><g><g><path d="M266.8,269.205c-1.897,0-3.584-1.367-3.928-3.303c-0.383-2.176,1.069-4.248,3.24-4.631l15.743-2.78      c2.108-0.387,4.24,1.062,4.631,3.24c0.383,2.175-1.07,4.248-3.241,4.631l-15.742,2.78      C267.269,269.182,267.034,269.205,266.8,269.205z"/></g></g><g><g><path d="M386.519,487.621c-1.46,0-2.866-0.805-3.569-2.203l-37.514-74.574c-0.992-1.977-0.203-4.381,1.772-5.365      c1.952-1,4.365-0.211,5.365,1.772l37.514,74.575c0.992,1.976,0.203,4.381-1.772,5.365      C387.736,487.488,387.127,487.621,386.519,487.621z"/></g></g><g><g><path d="M347.146,494.57c-1.46,0-2.865-0.805-3.568-2.202l-37.515-74.591c-0.991-1.976-0.202-4.381,1.773-5.364      c1.96-1,4.365-0.219,5.364,1.772l37.515,74.591c0.991,1.976,0.203,4.381-1.773,5.364      C348.364,494.438,347.755,494.57,347.146,494.57z"/></g></g><g><g><path d="M339.251,495.953c-1.897,0-3.584-1.359-3.928-3.304c-0.383-2.179,1.069-4.248,3.24-4.631l55.132-9.722      c2.123-0.398,4.24,1.054,4.63,3.24c0.383,2.171-1.069,4.248-3.24,4.631l-55.131,9.723      C339.72,495.938,339.485,495.953,339.251,495.953z"/></g></g><g><g><path d="M291.102,407.017c-1.898,0-3.585-1.366-3.928-3.303l-1.562-8.863c-0.383-2.179,1.07-4.248,3.241-4.631      c2.116-0.406,4.24,1.062,4.63,3.241l1.562,8.863c0.383,2.17-1.07,4.248-3.241,4.63      C291.569,406.993,291.336,407.017,291.102,407.017z"/></g></g><g><g><path d="M291.102,407.017c-1.906,0-3.593-1.366-3.936-3.318c-0.375-2.171,1.085-4.248,3.264-4.623l70.905-12.26      c2.14-0.359,4.232,1.085,4.622,3.264c0.375,2.171-1.085,4.248-3.264,4.623l-70.905,12.26      C291.562,406.993,291.328,407.017,291.102,407.017z"/></g></g><g><g><path d="M362.006,394.757c-1.897,0-3.584-1.366-3.928-3.304l-1.39-7.871c-0.383-2.171,1.069-4.248,3.24-4.631      c2.132-0.398,4.248,1.062,4.631,3.241l1.39,7.871c0.383,2.171-1.069,4.248-3.24,4.631      C362.475,394.733,362.24,394.757,362.006,394.757z"/></g></g></g><g><g><path d="M507.885,263.934c-2.21,0-3.998-1.788-3.998-3.998V20.046c0-2.21,1.788-3.999,3.998-3.999s3.998,1.789,3.998,3.999     v239.89C511.883,262.146,510.095,263.934,507.885,263.934z"/></g></g><g><g><path d="M52.093,375.883c-2.209,0-3.998-1.788-3.998-3.998V20.046c0-2.21,1.789-3.999,3.998-3.999     c2.21,0,3.999,1.789,3.999,3.999v351.839C56.092,374.095,54.303,375.883,52.093,375.883z"/></g></g><g><g><path d="M28.104,399.871c-2.21,0-3.998-1.787-3.998-3.998c0-2.209,1.788-3.998,3.998-3.998c11.026,0,19.991-8.965,19.991-19.99     c0-2.21,1.789-3.998,3.998-3.998c2.21,0,3.999,1.788,3.999,3.998C56.092,387.314,43.535,399.871,28.104,399.871z"/></g></g><g><g><path d="M28.104,399.871c-15.431,0-27.987-12.557-27.987-27.986c0-2.21,1.788-3.998,3.998-3.998s3.998,1.788,3.998,3.998     c0,11.025,8.965,19.99,19.991,19.99c2.21,0,3.998,1.789,3.998,3.998C32.103,398.084,30.314,399.871,28.104,399.871z"/></g></g><g><g><path d="M4.115,375.883c-2.21,0-3.998-1.788-3.998-3.998V44.034c0-2.21,1.788-3.998,3.998-3.998s3.998,1.788,3.998,3.998v327.851     C8.113,374.095,6.325,375.883,4.115,375.883z"/></g></g><g><g><path d="M36.101,375.883c-2.21,0-3.998-1.788-3.998-3.998V28.042c0-2.21,1.788-3.998,3.998-3.998s3.998,1.788,3.998,3.998     v343.843C40.099,374.095,38.311,375.883,36.101,375.883z"/></g></g><g><g><path d="M20.108,375.883c-2.209,0-3.998-1.788-3.998-3.998V36.038c0-2.21,1.789-3.998,3.998-3.998     c2.21,0,3.999,1.788,3.999,3.998v335.847C24.106,374.095,22.318,375.883,20.108,375.883z"/></g></g><g><g><path d="M28.104,383.879c-2.21,0-3.998-1.788-3.998-3.998s1.788-3.998,3.998-3.998c2.202,0,3.998-1.796,3.998-3.998     c0-2.21,1.788-3.998,3.998-3.998s3.998,1.788,3.998,3.998C40.099,378.498,34.719,383.879,28.104,383.879z"/></g></g><g><g><path d="M28.104,383.879c-6.614,0-11.995-5.381-11.995-11.994c0-2.21,1.789-3.998,3.998-3.998c2.21,0,3.999,1.788,3.999,3.998     c0,2.202,1.796,3.998,3.998,3.998c2.21,0,3.998,1.788,3.998,3.998S30.314,383.879,28.104,383.879z"/></g></g><g><g><path d="M252.751,399.871H28.104c-2.21,0-3.998-1.787-3.998-3.998c0-2.209,1.788-3.998,3.998-3.998h224.647     c2.21,0,3.999,1.789,3.999,3.998C256.75,398.084,254.961,399.871,252.751,399.871z"/></g></g><g><g><path d="M507.885,24.044H52.093c-2.209,0-3.998-1.789-3.998-3.998c0-2.21,1.789-3.999,3.998-3.999h455.792     c2.21,0,3.998,1.789,3.998,3.999C511.883,22.255,510.095,24.044,507.885,24.044z"/></g></g><g><g><path d="M475.899,104.007H100.071c-2.21,0-3.998-1.788-3.998-3.998V52.031c0-2.21,1.788-3.999,3.998-3.999h375.828     c2.21,0,3.998,1.789,3.998,3.999v47.978C479.897,102.219,478.109,104.007,475.899,104.007z M104.069,96.011h367.832V56.029     H104.069V96.011z"/></g></g><g><g><path d="M451.91,80.018h-327.85c-2.21,0-3.998-1.788-3.998-3.998s1.788-3.998,3.998-3.998h327.85c2.21,0,3.998,1.788,3.998,3.998     S454.12,80.018,451.91,80.018z"/></g></g><g><g><path d="M459.906,399.871h-71.967c-2.21,0-3.998-1.787-3.998-3.998c0-2.209,1.788-3.998,3.998-3.998h71.967     c2.211,0,3.998,1.789,3.998,3.998C463.904,398.084,462.117,399.871,459.906,399.871z"/></g></g><g><g><path d="M212.021,207.959H100.071c-2.21,0-3.998-1.788-3.998-3.998v-71.967c0-2.21,1.788-3.998,3.998-3.998h111.949     c2.209,0,3.998,1.788,3.998,3.998v71.967C216.019,206.171,214.23,207.959,212.021,207.959z M104.069,199.963h103.953v-63.971     H104.069V199.963z"/></g></g><g><g><path d="M148.05,199.963c-0.836,0-1.679-0.262-2.397-0.8c-1.765-1.324-2.124-3.831-0.805-5.596l23.989-31.985     c1.335-1.772,3.85-2.116,5.599-0.8c1.765,1.323,2.124,3.83,0.805,5.595l-23.989,31.985     C150.462,199.412,149.26,199.963,148.05,199.963z"/></g></g><g><g><path d="M196.027,199.963c-1.21,0-2.413-0.551-3.201-1.601l-23.989-31.985c-1.32-1.765-0.961-4.271,0.804-5.595     c1.757-1.32,4.264-0.977,5.599,0.8l23.989,31.985c1.319,1.765,0.96,4.271-0.805,5.596     C197.706,199.701,196.863,199.963,196.027,199.963z"/></g></g><g><g><path d="M124.061,199.963c-0.766,0-1.539-0.219-2.218-0.672c-1.835-1.226-2.335-3.705-1.109-5.544l15.993-23.989     c1.233-1.839,3.717-2.327,5.544-1.108c1.835,1.226,2.335,3.705,1.109,5.544l-15.993,23.989     C126.614,199.338,125.349,199.963,124.061,199.963z"/></g></g><g><g><path d="M145.379,183.971c-1.289,0-2.554-0.625-3.327-1.78l-5.326-7.997c-1.226-1.839-0.727-4.322,1.109-5.544     c1.819-1.227,4.311-0.73,5.544,1.108l5.325,7.997c1.227,1.839,0.727,4.322-1.108,5.544     C146.917,183.752,146.144,183.971,145.379,183.971z"/></g></g><g><g><path d="M124.061,167.978c-6.614,0-11.995-5.38-11.995-11.994s5.38-11.995,11.995-11.995s11.994,5.381,11.994,11.995     S130.675,167.978,124.061,167.978z M124.061,151.985c-2.202,0-3.998,1.792-3.998,3.998s1.796,3.998,3.998,3.998     s3.998-1.792,3.998-3.998S126.263,151.985,124.061,151.985z"/></g></g><g><g><path d="M339.962,135.992H236.009c-2.21,0-3.999-1.788-3.999-3.998s1.789-3.998,3.999-3.998h103.953     c2.21,0,3.998,1.788,3.998,3.998S342.172,135.992,339.962,135.992z"/></g></g><g><g><path d="M339.962,159.981H236.009c-2.21,0-3.999-1.788-3.999-3.998s1.789-3.998,3.999-3.998h103.953     c2.21,0,3.998,1.788,3.998,3.998S342.172,159.981,339.962,159.981z"/></g></g><g><g><path d="M339.962,183.971H236.009c-2.21,0-3.999-1.788-3.999-3.998s1.789-3.999,3.999-3.999h103.953     c2.21,0,3.998,1.789,3.998,3.999S342.172,183.971,339.962,183.971z"/></g></g><g><g><path d="M339.962,207.959H236.009c-2.21,0-3.999-1.788-3.999-3.998s1.789-3.998,3.999-3.998h103.953     c2.21,0,3.998,1.788,3.998,3.998S342.172,207.959,339.962,207.959z"/></g></g><g><g><path d="M339.962,231.948H236.009c-2.21,0-3.999-1.788-3.999-3.998s1.789-3.998,3.999-3.998h103.953     c2.21,0,3.998,1.788,3.998,3.998S342.172,231.948,339.962,231.948z"/></g></g><g><g><path d="M252.002,255.938h-15.993c-2.21,0-3.999-1.788-3.999-3.998s1.789-3.998,3.999-3.998h15.993     c2.21,0,3.998,1.788,3.998,3.998S254.212,255.938,252.002,255.938z"/></g></g><g><g><path d="M212.395,231.948H100.446c-2.21,0-3.998-1.788-3.998-3.998s1.788-3.998,3.998-3.998h111.949     c2.21,0,3.998,1.788,3.998,3.998S214.605,231.948,212.395,231.948z"/></g></g><g><g><path d="M196.402,327.904h-95.956c-2.21,0-3.998-1.788-3.998-3.998s1.788-3.998,3.998-3.998h95.956     c2.21,0,3.998,1.788,3.998,3.998S198.612,327.904,196.402,327.904z"/></g></g><g><g><path d="M204.398,351.894H100.446c-2.21,0-3.998-1.788-3.998-3.998s1.788-3.998,3.998-3.998h103.952     c2.21,0,3.998,1.788,3.998,3.998S206.608,351.894,204.398,351.894z"/></g></g><g><g><path d="M212.395,375.883H100.446c-2.21,0-3.998-1.788-3.998-3.998s1.788-3.998,3.998-3.998h111.949     c2.21,0,3.998,1.788,3.998,3.998S214.605,375.883,212.395,375.883z"/></g></g><g><g><path d="M212.395,255.938H100.446c-2.21,0-3.998-1.788-3.998-3.998s1.788-3.998,3.998-3.998h111.949     c2.21,0,3.998,1.788,3.998,3.998S214.605,255.938,212.395,255.938z"/></g></g><g><g><path d="M204.398,279.927H100.446c-2.21,0-3.998-1.788-3.998-3.998s1.788-3.999,3.998-3.999h103.952     c2.21,0,3.998,1.789,3.998,3.999S206.608,279.927,204.398,279.927z"/></g></g><g><g><path d="M196.402,303.916h-95.956c-2.21,0-3.998-1.789-3.998-3.998c0-2.211,1.788-3.999,3.998-3.999h95.956     c2.21,0,3.998,1.788,3.998,3.999C200.4,302.127,198.612,303.916,196.402,303.916z"/></g></g><g><g><path d="M475.899,135.992H363.951c-2.211,0-3.999-1.788-3.999-3.998s1.788-3.998,3.999-3.998h111.948     c2.21,0,3.998,1.788,3.998,3.998S478.109,135.992,475.899,135.992z"/></g></g><g><g><path d="M475.899,159.981H363.951c-2.211,0-3.999-1.788-3.999-3.998s1.788-3.998,3.999-3.998h111.948     c2.21,0,3.998,1.788,3.998,3.998S478.109,159.981,475.899,159.981z"/></g></g><g><g><path d="M435.918,183.971h-71.967c-2.211,0-3.999-1.788-3.999-3.998s1.788-3.999,3.999-3.999h71.967     c2.21,0,3.998,1.789,3.998,3.999S438.128,183.971,435.918,183.971z"/></g></g><g><g><path d="M411.929,207.959h-47.978c-2.211,0-3.999-1.788-3.999-3.998s1.788-3.998,3.999-3.998h47.978     c2.21,0,3.998,1.788,3.998,3.998S414.139,207.959,411.929,207.959z"/></g></g><g><g><path d="M371.947,231.948h-7.996c-2.211,0-3.999-1.788-3.999-3.998s1.788-3.998,3.999-3.998h7.996     c2.21,0,3.998,1.788,3.998,3.998S374.157,231.948,371.947,231.948z"/></g></g></g></svg>