<svg id="Calque_2" data-name="Calque 2" xmlns="http://www.w3.org/2000/svg" viewBox="0 0 512 640"><title>Plan de travail 1</title><path d="M221.59,493.47c-33.8-8.91-66.85-18.94-95.82-29-5.2-1.86-10.4-3.72-15.23-3.72C51.12,458.57.25,414.74.25,334.16c0-80.22,49-131.84,116.61-131.84,68,0,112.15,52.73,112.15,126.64,0,64.24-29.71,105.47-71.3,120v1.49c24.88,6.31,52,12.25,73.16,16Zm-26.74-163c0-50.13-26-101.76-79.11-101.76-54.59,0-81.33,50.51-81,104.73-.37,53.11,29,101,79.48,101C165.88,434.43,194.85,387.63,194.85,330.44Z"/><path d="M314,456.23c-4.28-4.28-8.33-8.56-14.19-14.86-13.06,12.16-27.7,17.34-44.37,17.34-29.51,0-46.62-19.82-46.62-42.57,0-20.72,12.38-34.91,29.73-44.37v-.68c-7.89-9.91-12.62-20.95-12.62-31.76,0-18.47,13.29-37.39,38.52-37.39,18.92,0,33.56,12.62,33.56,32.21,0,16-9.23,28.61-33.33,40.54v.68c12.83,14.87,27.25,31.53,36.93,42.35,7-10.59,11.72-25.23,14.65-44.38h18c-4.05,23.88-10.58,42.8-21.84,56.09,8.1,8.56,16,17.12,25,26.8ZM290.09,430.1c-9-9.91-25.9-28.38-42.8-47.75-8.11,5.18-19.59,14.87-19.59,30.86,0,17.34,12.83,30.63,31.08,30.63A42.41,42.41,0,0,0,290.09,430.1Zm-46.18-92.57c0,10.81,5,19.15,11.49,27.25,15.32-8.78,25.23-16.89,25.23-29.73,0-9.23-5.18-19.59-17.57-19.59C250.45,315.46,243.91,325.82,243.91,337.53Z"/><path d="M362,378l-26,78.73H302.54l85-250.31h39L512,456.71H477.46L450.72,378ZM444,352.72l-24.51-72c-5.57-16.34-9.29-31.2-13-45.68h-.74c-3.72,14.85-7.8,30.08-12.63,45.31l-24.51,72.41Z"/><path d="M256.07,228.69A114.31,114.31,0,0,0,260.7.17V114.38l-.05.73-18,112.79A116.18,116.18,0,0,0,256.07,228.69Z"/><path d="M148.44,75.4l103,32.65L251.3.17A113.81,113.81,0,0,0,148.44,75.4Z"/><path d="M169.29,189a114.37,114.37,0,0,0,64,37.5l17.54-108.86L145.64,84.23A114.52,114.52,0,0,0,169.29,189Z"/></svg>