<?xml version="1.0" encoding="utf-8"?>
<!-- Generator: Adobe Illustrator 21.0.0, SVG Export Plug-In . SVG Version: 6.00 Build 0)  -->
<svg version="1.1" id="Calque_1" xmlns="http://www.w3.org/2000/svg" xmlns:xlink="http://www.w3.org/1999/xlink" x="0px" y="0px"
	 viewBox="0 0 264 415" style="enable-background:new 0 0 264 415;" xml:space="preserve">
<style type="text/css">
	.st0{fill:none;stroke:#FFFFFF;stroke-width:9;stroke-miterlimit:10;}
	.st1{fill:none;stroke:#000000;stroke-width:9;stroke-miterlimit:10;}
	.st2{fill:none;stroke:#000000;stroke-width:14;stroke-linecap:round;stroke-miterlimit:10;}
</style>
<g>
	<path d="M189,46l75,74v212H45v-22H23v-24H0V0h122v7H7v273h16V24h139v6H30v273h15V46H189z M257,124h-70h-4v-3V52H51v273h206V124z
		 M190,56v61h62L190,56z"/>
</g>
<g id="Oeil">
	<path d="M149.4,210.4c-15.8,0-35-11-49.5-17.9c14.4-6.9,33.7-17.9,49.5-17.9c16.5,0,35.7,10.3,50.1,17.9
		C185.2,200.1,165.9,211,149.4,210.4z M154.9,181.5c4.2,2.1,6.9,6.3,6.9,11c0,4.8-2.8,9.6-6.9,11c8.2-0.7,17.2-4.1,30.2-11
		C172.1,186.3,163.2,182.2,154.9,181.5L154.9,181.5z M143.9,203.5c-6.1-3.7-8-11.6-4.3-17.7c1.1-1.8,2.6-3.3,4.3-4.3
		c-7.6,1.4-16.5,4.8-29.5,11C127.4,198.7,136.4,202.1,143.9,203.5L143.9,203.5z"/>
</g>
<g id="Loupe">
	
		<ellipse transform="matrix(0.7071 -0.7071 0.7071 0.7071 -89.6573 160.9993)" class="st0" cx="149.5" cy="188.7" rx="56.2" ry="56.2"/>
	
		<ellipse transform="matrix(0.7071 -0.7071 0.7071 0.7071 -89.6649 161.0269)" class="st1" cx="149.5" cy="188.7" rx="64.2" ry="64.2"/>
	<line class="st2" x1="198.3" y1="237.5" x2="238.6" y2="277.8"/>
</g>
</svg>
