<svg xmlns="http://www.w3.org/2000/svg" xmlns:xlink="http://www.w3.org/1999/xlink" version="1.1" x="0px" y="0px" viewBox="0 0 100 125" enable-background="new 0 0 100 100" xml:space="preserve"><g><g><path d="M58.616,22.124c0.371,0.079,0.732,0.117,1.079,0.117c0.941,0,1.77-0.287,2.361-0.834c0.906-0.837,1.086-2.091,1.205-2.92    c0.211-1.473,0.451-3.143-0.008-4.789c-0.258-0.928-0.837-1.913-1.669-2.602c0.175-0.248,0.225-0.576,0.109-0.879    c-0.185-0.488-0.727-0.733-1.216-0.549c-0.413,0.156-0.98,0.047-1.577-0.067c-0.79-0.149-1.683-0.315-2.599,0.022    c-0.537,0.205-1.034,0.577-1.518,1.139c-1.574,1.829-2.092,4.488-1.32,6.774C54.232,19.824,56.255,21.624,58.616,22.124z     M56.213,11.997c0.273-0.317,0.52-0.515,0.753-0.604c0.148-0.055,0.314-0.077,0.495-0.077c0.285,0,0.606,0.055,0.941,0.117    c0.121,0.362,0.451,0.624,0.844,0.644c1.06,0.059,1.901,1.116,2.186,2.131c0.351,1.262,0.143,2.723-0.042,4.012    c-0.112,0.775-0.235,1.446-0.619,1.8c-0.346,0.32-1.002,0.418-1.763,0.255c-1.722-0.364-3.196-1.676-3.757-3.342    C54.688,15.267,55.066,13.329,56.213,11.997z"/><path d="M94.253,70.043L69.356,32.895c-1.33-1.983-3.128-4.179-5.508-4.52c0.117-0.267,0.232-0.537,0.349-0.802    c0.327-0.74,0.654-1.48,0.966-2.222c1.537-3.646,3.133-8.421,1.81-13.022c-0.797-2.767-2.651-5.23-5.087-6.762    c-0.305-0.191-0.676-0.185-0.968-0.022c-1.22-0.297-2.564-0.565-3.886-0.507c-1.95,0.082-3.643,0.867-4.644,2.154    c-0.631,0.81-0.958,1.765-1.218,2.678c-0.837,2.951-1.027,5.527-0.581,7.874c0.43,2.274,1.458,4.305,2.451,6.272l1.479,2.925    c-3.86-0.259-7.686-0.944-11.402-2.069c-0.099-0.205-0.26-0.384-0.451-0.48c-0.359-0.183-0.804-0.136-1.138,0.111    c-0.235,0.174-0.374,0.518-0.396,0.83c-0.015,0.043-0.018,0.087-0.027,0.132c-0.006,0.008-0.015,0.012-0.02,0.021L30.1,42.546    c-0.076,0.014-0.155,0.023-0.231,0.036c-0.168-0.024-0.34-0.02-0.507,0.053c-0.019,0.008-0.03,0.024-0.048,0.034    c-2.782,0.444-5.651,0.647-8.442,0.831c-4.248,0.279-8.634,0.567-12.893,1.767c-0.164-0.13-0.361-0.201-0.56-0.228    c-0.14-0.48-0.629-0.772-1.126-0.653c-0.507,0.126-0.815,0.638-0.691,1.144c4.035,16.366,8.742,32.803,13.989,48.853    c0.129,0.398,0.498,0.651,0.898,0.651c0.082,0,0.168-0.01,0.252-0.034c0.078-0.021,0.143-0.067,0.214-0.101    c0.163,0.127,0.367,0.2,0.581,0.2c0.07,0,0.144-0.008,0.216-0.025c9.26-2.186,18.542-4.784,27.588-7.718    c0.497-0.161,0.768-0.695,0.607-1.191c-0.017-0.051-0.052-0.089-0.076-0.135c0.034-0.1,0.084-0.199,0.083-0.301    c1.804-3.831,4.252-7.413,6.624-10.888c2.257-3.305,4.551-6.724,6.367-10.389c0.756,0.176,1.54,0.253,2.392,0.333    c9.225,0.867,18.168,3.275,26.581,7.156c0.126,0.059,0.262,0.087,0.396,0.087c0.154,0,0.309-0.037,0.448-0.112    c0.192-0.104,0.317-0.279,0.4-0.476c0.101,0.035,0.201,0.075,0.308,0.075c0.18,0,0.362-0.052,0.525-0.159    C94.427,71.065,94.543,70.478,94.253,70.043z M52.445,17.393c-0.389-2.052-0.211-4.344,0.544-7.005    c0.238-0.842,0.482-1.51,0.889-2.034c0.661-0.849,1.839-1.369,3.232-1.426c0.096-0.005,0.191-0.007,0.287-0.007    c1.272,0,2.576,0.331,3.839,0.651c0.092,0.025,0.198,0.029,0.275,0.029c1.737,1.294,3.049,3.171,3.648,5.252    c1.158,4.03-0.319,8.405-1.737,11.764c-0.309,0.733-0.631,1.463-0.953,2.193c-0.945,2.143-1.913,4.332-2.55,6.621l-5.19-10.265    C53.792,21.316,52.826,19.404,52.445,17.393z M7.989,47.23C8,47.227,8.007,47.229,8.018,47.226    c4.163-1.262,8.644-1.557,12.978-1.841c2.691-0.177,5.457-0.373,8.185-0.783L47.03,86.097c-8.3,2.645-16.778,5.009-25.247,7.023    c-0.113-0.524-0.458-0.955-0.951-1.125c-0.012-0.003-0.023-0.007-0.035-0.01C16.03,77.258,11.738,62.224,7.989,47.23z     M55.017,73.773c-2.346,3.436-4.731,6.991-6.577,10.82L31.152,44.402l10.665-16.561c0.077-0.05,0.13-0.133,0.19-0.204    c6.2,11.816,12.825,23.569,19.728,34.968c-0.109,0.098-0.204,0.214-0.259,0.361c-0.036,0.096-0.043,0.194-0.047,0.291    C59.645,66.94,57.31,70.415,55.017,73.773z M90.964,69.444c-8.096-3.513-16.66-5.713-25.62-6.557    c-0.555-0.052-1.083-0.118-1.593-0.21c0.033-0.272-0.043-0.542-0.224-0.744c-0.007-0.013-0.007-0.028-0.015-0.042    C56.621,50.527,50.01,38.803,43.817,27.017c3.636,1.006,7.368,1.646,11.136,1.857c0.018,0.002,0.037,0.002,0.055,0.002    c0.156,0,0.298-0.049,0.429-0.118l3.539,7l-0.332,0.327c-0.24,0.235-0.337,0.581-0.255,0.908c0.084,0.326,0.334,0.584,0.658,0.676    l0.881,0.253c0.087,0.025,0.175,0.037,0.263,0.037c0.188,0,0.372-0.055,0.532-0.163c0.153-0.104,0.268-0.248,0.339-0.414    c0.32-0.25,0.451-0.688,0.3-1.082l-0.094-0.25c0.322-1.981,1.01-3.918,1.792-5.817c1.892-0.085,3.521,1.917,4.725,3.715    l23.707,35.374c-0.117,0.005-0.234,0.018-0.348,0.049C91.082,69.39,91.021,69.416,90.964,69.444z"/></g></g></svg>