<svg xmlns="http://www.w3.org/2000/svg" xmlns:xlink="http://www.w3.org/1999/xlink" xml:space="preserve" style="shape-rendering:geometricPrecision;text-rendering:geometricPrecision;image-rendering:optimizeQuality;" viewBox="0 0 1.17463 1.4682875000000002" x="0px" y="0px" fill-rule="evenodd" clip-rule="evenodd"><defs><style type="text/css">
   
    .fil0 {fill:black}
   
  </style></defs><g><path class="fil0" d="M0.0453511 0l0.463839 0c0.024957,0 0.0453511,0.0203941 0.0453511,0.0453511l0 0.468648c0,0.024957 -0.0203941,0.0453511 -0.0453511,0.0453511l-0.463839 0c-0.024957,0 -0.0453511,-0.0203941 -0.0453511,-0.0453511l0 -0.468648c0,-0.024957 0.0203941,-0.0453511 0.0453511,-0.0453511zm0.620071 0.615276l0.463839 0c0.024957,0 0.0453665,0.0203941 0.0453665,0.0453665l0 0.468633c0,0.024957 -0.0204095,0.0453511 -0.0453665,0.0453511l-0.463839 0c-0.0249416,0 -0.0453511,-0.0203941 -0.0453511,-0.0453511l0 -0.468633c0,-0.0249724 0.0204095,-0.0453665 0.0453511,-0.0453665zm-0.620071 0l0.463839 0c0.024957,0 0.0453511,0.0203941 0.0453511,0.0453665l0 0.468633c0,0.024957 -0.0203941,0.0453511 -0.0453511,0.0453511l-0.463839 0c-0.024957,0 -0.0453511,-0.0203941 -0.0453511,-0.0453511l0 -0.468633c0,-0.0249724 0.0203941,-0.0453665 0.0453511,-0.0453665zm0.620071 -0.615276l0.463839 0c0.024957,0 0.0453665,0.0203941 0.0453665,0.0453511l0 0.468648c0,0.024957 -0.0204095,0.0453511 -0.0453665,0.0453511l-0.463839 0c-0.0249416,0 -0.0453511,-0.0203941 -0.0453511,-0.0453511l0 -0.468648c0,-0.024957 0.0204095,-0.0453511 0.0453511,-0.0453511z"/></g></svg>