<?xml version="1.0" standalone="yes"?><svg xmlns="http://www.w3.org/2000/svg" xmlns:xlink="http://www.w3.org/1999/xlink" id="Layer_1" style="enable-background:new 0 0 128 128;zoom: 1;" version="1.1" viewBox="0 0 128 128" xml:space="preserve"><g><path d="M21.8,9.3 c-1,0 -1.9,0.8 -1.9,1.9 v90.8 c0,1 0.8,1.9 1.9,1.9 H108 c1,0 1.9,-0.8 1.9,-1.9 V11.1 c0,-1 -0.8,-1.9 -1.9,-1.9 H21.8  z M106.1,100 H23.6 V13 h82.5 V100  z "></path><line stroke="#000000" y1="95.546738px" id="line2" x1="29.552408px" stroke-width="3px" y2="95.728043px" x2="49.133144px" transform=""></line><path d="M27.8,82.1c0,0.2,0.1,0.3,0.1,0.4c0,0,0,0,0,0c0,0,0,0,0,0.1c0.1,0.1,0.1,0.2,0.2,0.3c0,0,0,0.1,0.1,0.1 c0.1,0.1,0.2,0.2,0.3,0.3c0,0,0.1,0,0.1,0c0.1,0.1,0.2,0.1,0.3,0.2c0,0,0.1,0,0.1,0c0.1,0,0.3,0.1,0.5,0.1h22.4h25.7h22.4 c0.2,0,0.3,0,0.5-0.1c0,0,0.1,0,0.1,0c0.1,0,0.2-0.1,0.3-0.2c0,0,0.1,0,0.1,0c0.1-0.1,0.2-0.2,0.3-0.3c0,0,0-0.1,0.1-0.1 c0.1-0.1,0.2-0.2,0.2-0.3c0,0,0,0,0-0.1c0,0,0,0,0,0c0.1-0.1,0.1-0.3,0.1-0.4c0,0,0,0,0-0.1c0-0.1,0-0.2,0-0.3V17.8 c0-1-0.8-1.9-1.9-1.9H29.6c-1,0-1.9,0.8-1.9,1.9v63.9C27.7,81.8,27.8,81.9,27.8,82.1C27.8,82,27.8,82,27.8,82.1z M98.3,19.7v56.4 L77.6,48.6c-0.7-0.9-2.3-0.9-3,0l-9.7,12.9l-9.7-12.9c-0.7-0.9-2.3-0.9-3,0L31.5,76.1V19.7H98.3z M74,79.8H55.8l20.3-27l20.3,27H74 z M53.7,52.9l8.8,11.7L50.8,79.8H33.4L53.7,52.9z"></path><path d="M64.9,44.2c6.2,0,11.2-5,11.2-11.2c0-6.2-5-11.2-11.2-11.2c-6.2,0-11.2,5-11.2,11.2C53.7,39.2,58.7,44.2,64.9,44.2z M64.9,25.6c4.1,0,7.4,3.3,7.4,7.4c0,4.1-3.3,7.4-7.4,7.4c-4.1,0-7.4-3.3-7.4-7.4C57.4,28.9,60.8,25.6,64.9,25.6z"></path><path d="M99,87.390427 H81.300003 c-1,0 -1.9,0.8 -1.9,1.9 c0,1 0.8,1.9 1.9,1.9 H99 c1,0 1.9,-0.8 1.9,-1.9 C100.900002,88.190422 100,87.390427 99,87.390427  z " visibility="visible"></path><path d="M-14548.955078,-12032.976562 H-14566.654297 c-1,0 -1.9,0.8 -1.9,1.9 c0,1 0.8,1.9 1.9,1.9 H-14548.955078 c1,0 1.9,-0.8 1.9,-1.9 C-14547.054688,-12032.176758 -14547.955078,-12032.976562 -14548.955078,-12032.976562  z " visibility="visible" id="path1"></path><path d="M-10470.365234,-8562.501953 h-7.9 c-1,0 -1.9,0.8 -1.9,1.9 c0,1 0.8,1.9 1.9,1.9 H-10470.365234 c1,0 1.9,-0.8 1.9,-1.9 C-10468.464844,-8561.701172 -10469.365234,-8562.501953 -10470.365234,-8562.501953  z "></path></g><line stroke="#000000" y1="89.382439px" id="line1" x1="29.55241px" stroke-width="3px" y2="89.382439px" x2="75.240814px" transform=""></line></svg>