<?xml version="1.0" ?><!DOCTYPE svg  PUBLIC '-//W3C//DTD SVG 1.1//EN'  'http://www.w3.org/Graphics/SVG/1.1/DTD/svg11.dtd'><svg height="512px" style="enable-background:new 0 0 512 512;" version="1.1" viewBox="0 0 512 512" width="512px" xml:space="preserve" xmlns="http://www.w3.org/2000/svg" xmlns:xlink="http://www.w3.org/1999/xlink"><style type="text/css">
<![CDATA[
	.st0{display:inline;}
	.st1{fill:none;stroke:#000000;stroke-width:16;stroke-linecap:round;stroke-linejoin:round;stroke-miterlimit:10;}
	.st2{display:none;}
]]>
</style><g class="st2" id="Layer"><g class="st0"><g id="line"><polyline class="st1" points="175,257 428,257 428,256.999    "/><g><path d="M107.5,248.5c4.136,0,7.5,3.364,7.5,7.5s-3.364,7.5-7.5,7.5s-7.5-3.364-7.5-7.5S103.364,248.5,107.5,248.5 M107.5,232.5      C94.521,232.5,84,243.021,84,256s10.521,23.5,23.5,23.5S131,268.979,131,256S120.479,232.5,107.5,232.5L107.5,232.5z"/></g></g><g id="line_1_"><polyline class="st1" points="175,127 428,127 428,126.999    "/><g><path d="M107.5,119c4.136,0,7.5,3.364,7.5,7.5s-3.364,7.5-7.5,7.5s-7.5-3.364-7.5-7.5S103.364,119,107.5,119 M107.5,103      C94.521,103,84,113.521,84,126.5S94.521,150,107.5,150s23.5-10.521,23.5-23.5S120.479,103,107.5,103L107.5,103z"/></g></g><g id="line_2_"><polyline class="st1" points="175,386 428,386 428,385.999    "/><g><path d="M107.5,378c4.136,0,7.5,3.364,7.5,7.5s-3.364,7.5-7.5,7.5s-7.5-3.364-7.5-7.5S103.364,378,107.5,378 M107.5,362      C94.521,362,84,372.521,84,385.5S94.521,409,107.5,409s23.5-10.521,23.5-23.5S120.479,362,107.5,362L107.5,362z"/></g></g></g></g><g id="Layer_copy"><g id="line_5_"><g><path d="M428,265H175c-4.418,0-8-3.582-8-8c0-4.418,3.582-8,8-8h253c4.418,0,8,3.582,8,8C436,261.418,432.418,265,428,265z"/></g><g><path d="M107.5,248.5c4.136,0,7.5,3.364,7.5,7.5s-3.364,7.5-7.5,7.5s-7.5-3.364-7.5-7.5S103.364,248.5,107.5,248.5 M107.5,232.5     C94.521,232.5,84,243.021,84,256s10.521,23.5,23.5,23.5S131,268.979,131,256S120.479,232.5,107.5,232.5L107.5,232.5z"/></g></g><g id="line_4_"><g><path d="M428,135H175c-4.418,0-8-3.582-8-8s3.582-8,8-8h253c4.418,0,8,3.582,8,8S432.418,135,428,135z"/></g><g><path d="M107.5,119c4.136,0,7.5,3.364,7.5,7.5s-3.364,7.5-7.5,7.5s-7.5-3.364-7.5-7.5S103.364,119,107.5,119 M107.5,103     C94.521,103,84,113.521,84,126.5S94.521,150,107.5,150s23.5-10.521,23.5-23.5S120.479,103,107.5,103L107.5,103z"/></g></g><g id="line_3_"><g><path d="M428,394H175c-4.418,0-8-3.582-8-8s3.582-8,8-8h253c4.418,0,8,3.582,8,8S432.418,394,428,394z"/></g><g><path d="M107.5,378c4.136,0,7.5,3.364,7.5,7.5s-3.364,7.5-7.5,7.5s-7.5-3.364-7.5-7.5S103.364,378,107.5,378 M107.5,362     C94.521,362,84,372.521,84,385.5S94.521,409,107.5,409s23.5-10.521,23.5-23.5S120.479,362,107.5,362L107.5,362z"/></g></g></g></svg>