<svg xmlns:dc="http://purl.org/dc/elements/1.1/" xmlns:cc="http://creativecommons.org/ns#" xmlns:rdf="http://www.w3.org/1999/02/22-rdf-syntax-ns#" xmlns:svg="http://www.w3.org/2000/svg" xmlns="http://www.w3.org/2000/svg" xmlns:sodipodi="http://sodipodi.sourceforge.net/DTD/sodipodi-0.dtd" xmlns:inkscape="http://www.inkscape.org/namespaces/inkscape" version="1.1" x="0px" y="0px" viewBox="0 0 100 125"><g transform="translate(0,-952.36218)"><path style="text-indent:0;text-transform:none;direction:ltr;block-progression:tb;baseline-shift:baseline;color:#000000;enable-background:accumulate;" d="m 35.15625,964.36215 c -10.100289,10.1627 -20.474039,20.5047 -29.1562495,29.18756 0,16.26489 0,32.87659 0,46.81249 30.8813195,0 61.3019295,0 87.9999995,0 0,-26.7166 0,-52.86169 0,-76.00005 -20.576161,0 -41.12567,0 -58.84375,0 z m 2.84375,4 52,0 0,68.00005 -80,0 0,-38.00009 c 9.333331,0 18.66667,0 28,0 0,-10 0,-19.99996 0,-29.99996 z m -3.999999,2.8438 0,23.15616 -23.15625,0 z M 50,972.33095 l 0,4 34,0 0,-4 z m 0,8 0,4 34,0 0,-4 z m 0,7.99996 0,4 34,0 0,-4 z m 0,8 0,3.99999 34,0 0,-3.99999 z m -37.999999,7.99999 0,4 33.999999,0 0,-4 z m 41.031249,0 c -1.11276,0 -2.03125,0.957 -2.03125,2.0312 l 0,23.9377 c 0,1.1437 0.91849,2.0312 2.03125,2.0312 l 27.9375,0 c 1.028379,0 2.03125,-0.957 2.03125,-2.0312 l 0,-23.9377 c 0,-1.0742 -0.91849,-2.0312 -2.03125,-2.0312 z m 1.96875,4 24,0 0,20.0001 -24,0 z m -42.999999,4.0001 0,4 33.999999,0 0,-4 z m 0,8 0,4 33.999999,0 0,-4 z m 0,8 0,4 33.999999,0 0,-4 z" fill="#000000" fill-opacity="1" stroke="none" marker="none" visibility="visible" display="inline" overflow="visible"/></g></svg>