<svg xmlns="http://www.w3.org/2000/svg" xmlns:xlink="http://www.w3.org/1999/xlink" xml:space="preserve" version="1.1" style="shape-rendering:geometricPrecision;text-rendering:geometricPrecision;image-rendering:optimizeQuality;" viewBox="0 0 264 415" x="0px" y="0px" fill-rule="evenodd" clip-rule="evenodd"><defs><style type="text/css">
   
    .fil0 {fill:black}
   
  </style></defs><g><path class="fil0" d="M150 219c-23,0 -51,-16 -72,-26 21,-10 49,-26 72,-26 24,0 52,15 73,26 -21,11 -49,27 -73,26zm39 -173l75 74 0 212 -219 0 0 -22 -22 0 0 -24 -23 0 0 -286 122 0 0 7 -115 0 0 273 16 0 0 -256 139 0 0 6 -132 0 0 273 15 0 0 -257 144 0zm68 78l-70 0 -4 0 0 -3 0 -69 -132 0 0 273 206 0 0 -201zm-67 -68l0 61 62 0 -62 -61zm-32 121c6,3 10,9 10,16 0,7 -4,14 -10,16 12,-1 25,-6 44,-16 -19,-9 -32,-15 -44,-16zm-16 32c-5,-3 -9,-9 -9,-16 0,-7 4,-13 9,-16 -11,2 -24,7 -43,16 19,9 32,14 43,16zm8 -22c4,0 6,3 6,6 0,3 -2,6 -6,6 -3,0 -5,-3 -5,-6 0,-3 2,-6 5,-6z"/></g></svg>