<svg xmlns="http://www.w3.org/2000/svg" viewBox="0 0 92.5 128.75" x="0px" y="0px"><defs><style>.cls-1{fill:none;stroke:#000;stroke-miterlimit:10;stroke-width:3px;}</style></defs><title>Asset 266</title><g data-name="Layer 2"><g><polyline class="cls-1" points="82.76 58.57 82.76 31.42 53.45 1.5 9.74 1.5 9.74 58.57"/><polyline class="cls-1" points="9.74 90.48 9.74 101.5 82.76 101.5 82.76 90.48"/><polyline class="cls-1" points="53.45 1.5 53.45 30.81 82.76 30.81"/><rect class="cls-1" x="1.5" y="58.57" width="89.5" height="31.91"/><path d="M35.14,82.46l-3.55-5.19L28,82.46H24.42l5.15-7.27-4.83-6.92h3.59l3.26,4.85,3.21-4.85h3.64l-4.83,6.89,5.15,7.3Z"/><path d="M52.44,82.46V72.53l-4,9.93H47.12l-4-9.93v9.93h-3V68.27h4.23l3.45,8.57,3.45-8.57h4.25V82.46Z"/><path d="M58.29,82.46V68.27h3V79.8h6v2.66Z"/></g></g></svg>