<svg xmlns="http://www.w3.org/2000/svg" xmlns:xlink="http://www.w3.org/1999/xlink" version="1.1" x="0px" y="0px" viewBox="0 0 65 81.25" enable-background="new 0 0 65 65" xml:space="preserve"><g><rect x="14.3" y="16.8" width="36.8" height="1.5"/><rect x="14.3" y="26.3" width="21.3" height="1.5"/><rect x="14.3" y="35.7" width="17.1" height="1.5"/><rect x="14.3" y="45.1" width="19.1" height="1.5"/><rect x="14.3" y="54.6" width="27.6" height="1.5"/><path d="M59.4,1H15.5v0c0,0,0,0-0.1,0c-3.9,0-7.1,3.2-7.1,7.1l0,55.9h49V50.4c3.3-2.5,5.5-6.5,5.5-11c0-4.5-2.2-8.5-5.5-11v-18   l8.1,0l0-0.7c0,0,0.1-1.6,0.1-2.2C65.5,3.8,62.9,1,59.4,1z M61.3,39.4c0,6.7-5.5,12.2-12.2,12.2s-12.2-5.5-12.2-12.2   c0-6.7,5.5-12.2,12.2-12.2S61.3,32.7,61.3,39.4z M55.8,27.5c-2-1.1-4.3-1.8-6.7-1.8c-7.6,0-13.7,6.1-13.7,13.7   c0,7.6,6.1,13.7,13.7,13.7c2.4,0,4.7-0.6,6.7-1.8v11.1h-46l0-54.4c0-3.1,2.5-5.6,5.6-5.6C18.5,2.5,21,5,21,8.1c0,0.4-0.1,1-0.2,1.5   l-0.2,0.8l0.8,0.1l34.4,0V27.5z M64,9H22.4c0-0.3,0.1-0.6,0.1-0.9c0-2.3-1.1-4.3-2.8-5.6h39.6c2.7,0,4.6,2.1,4.6,5   C64,7.9,64,8.5,64,9z"/><path d="M49.8,30.7h-1.5l0,6.5c-0.9,0.3-1.6,1.2-1.6,2.2c0,1.3,1,2.3,2.3,2.3c0.4,0,0.7-0.1,1-0.3l3.1,3.1l1.1-1.1l-3.1-3.1   c0.2-0.3,0.2-0.7,0.2-1c0-1-0.7-1.9-1.6-2.2L49.8,30.7z M49.7,40c-0.2,0.2-0.4,0.3-0.6,0.3c-0.5,0-0.8-0.4-0.8-0.8   c0-0.5,0.4-0.8,0.8-0.8c0.5,0,0.8,0.4,0.8,0.8C49.9,39.7,49.9,39.9,49.7,40z"/><rect x="48.3" y="28.1" width="1.5" height="1.2"/><rect x="40.9" y="31.1" transform="matrix(-0.7073 -0.7069 0.7069 -0.7073 48.3914 83.7541)" width="1.2" height="1.5"/><rect x="37.8" y="38.7" width="1.2" height="1.5"/><rect x="40.8" y="46.4" transform="matrix(-0.7071 -0.7071 0.7071 -0.7071 37.6811 109.5855)" width="1.5" height="1.2"/><rect x="48.3" y="49.5" width="1.5" height="1.2"/><rect x="56" y="46.2" transform="matrix(0.7069 0.7073 -0.7073 0.7069 49.8447 -26.3075)" width="1.2" height="1.5"/><rect x="59.2" y="38.7" width="1.2" height="1.5"/><rect x="55.9" y="31.2" transform="matrix(0.7071 0.7071 -0.7071 0.7071 39.1239 -30.7369)" width="1.5" height="1.2"/><path d="M0,31.4v29.9C0,62.8,1.2,64,2.8,64c1.5,0,2.8-1.2,2.8-2.8V31.4l-2.8-5.5L0,31.4z M1.5,34.4H4v21.9H1.5V34.4z M2.8,62.5   c-0.7,0-1.3-0.6-1.3-1.3v-3.4H4v3.4C4,61.9,3.4,62.5,2.8,62.5z M4,32.9H1.5v-1.2l1.3-2.5L4,31.7V32.9z"/></g></svg>